<?xml version="1.0" encoding="UTF-8"?>
<svg id="Capa_2" data-name="Capa 2" xmlns="http://www.w3.org/2000/svg" viewBox="0 0 95.71 89.46">
  <defs>
    <style>
      .cls-1 {
        fill: #635150;
        stroke-width: 0px;
      }
    </style>
  </defs>
  <g id="Capa_1-2" data-name="Capa 1">
    <g>
      <path class="cls-1" d="M84.27,2.27l8.39,7.95c3.62,3.43,4.08,9.5,1.02,13.56l-46.79,62.27c-3.05,4.06-8.46,4.58-12.08,1.15l-8.39-7.95c-3.62-3.43-4.08-9.5-1.02-13.56L72.19,3.42c3.05-4.06,8.46-4.58,12.08-1.15Z"/>
      <path class="cls-1" d="M2.35,40.82l7.55-8.96c3.25-3.86,8.68-4.03,12.11-.37l28.76,30.56c3.44,3.65,3.59,9.74.33,13.6l-7.55,8.96c-3.25,3.86-8.68,4.03-12.11.37L2.68,54.42c-3.44-3.65-3.59-9.74-.33-13.6Z"/>
    </g>
  </g>
</svg>