<?xml version="1.0" encoding="UTF-8"?>
<svg id="Capa_2" data-name="Capa 2" xmlns="http://www.w3.org/2000/svg" viewBox="0 0 84.52 84.13">
  <defs>
    <style>
      .cls-1 {
        fill: #635150;
        stroke-width: 0px;
      }
    </style>
  </defs>
  <g id="Capa_1-2" data-name="Capa 1">
    <path class="cls-1" d="M69.86,2.06c-1.45-1.45-3.47-2.24-5.51-2.02-.4.04-.83.11-1.26.21-2.35.54-3.94,1.71-4.7,2.35C40.48,20.6,22.56,38.6,4.64,56.6c-.72.73-1.18,1.67-1.32,2.68L.4,82.02c-.54.51-.51,1.38,0,1.83.52.46,1.4.36,1.83-.26,7.64-.81,15.27-1.62,22.91-2.44,1.07-.11,2.06-.59,2.82-1.36l55.52-56.29c.36-.62.99-1.91,1.04-3.66.02-.62-.04-1.2-.13-1.71-.25-1.31-.94-2.49-1.88-3.43l-12.64-12.64Z"/>
  </g>
</svg>