<?xml version="1.0" encoding="UTF-8"?>
<svg id="Capa_2" data-name="Capa 2" xmlns="http://www.w3.org/2000/svg" viewBox="0 0 79.62 84.36">
  <defs>
    <style>
      .cls-1 {
        fill: #635150;
        stroke-width: 0px;
      }
    </style>
  </defs>
  <g id="Capa_1-2" data-name="Capa 1">
    <g>
      <path class="cls-1" d="M73.43,20.94l-5.44,57.18c-.09.68-.4,2.27-1.65,3.79-1.38,1.68-3.08,2.27-3.73,2.45H18.12c-.67-.12-2.24-.49-3.68-1.79-1.79-1.63-2.2-3.65-2.31-4.28-1.78-19.11-3.57-38.23-5.36-57.34h66.65Z"/>
      <path class="cls-1" d="M4.72,8.92c-.5.13-2.2.63-3.46,2.31C-.03,12.94-.02,14.75,0,15.26c.07.47.46,2.78,2.57,4.37,1.76,1.32,3.63,1.34,4.2,1.32h66.65c.42.03,2.39.12,4.12-1.32,1.98-1.65,2.07-4.01,2.07-4.37.02-.42.06-2.57-1.58-4.37-1.81-1.98-4.24-1.98-4.61-1.98H4.72Z"/>
      <path class="cls-1" d="M29.93,0c-.7.16-2.13.6-3.46,1.83-1.69,1.56-2.17,3.43-2.31,4.12v2.97h4.12s0-2.8,0-2.8c.1-.29.32-.83.82-1.32.36-.35.74-.55.99-.66,6.4.11,12.79.21,19.19.32.24.02.91.12,1.41.67.16.17.26.34.33.49v3.3h4.28l-.16-4.46c-.21-.6-.66-1.65-1.65-2.63-1.34-1.32-2.85-1.71-3.49-1.83h-20.08Z"/>
    </g>
  </g>
</svg>